<svg xmlns="http://www.w3.org/2000/svg" xmlns:xlink="http://www.w3.org/1999/xlink" width="101" height="661" viewBox="0 0 101 661">
  <defs>
    <clipPath id="clip-path">
      <rect id="Rectangle_104" data-name="Rectangle 104" width="101" height="661" transform="translate(0 372)" fill="#fff" stroke="#707070" stroke-width="1"/>
    </clipPath>
    <clipPath id="clip-path-2">
      <path id="Path_785" data-name="Path 785" d="M0-1080H1772.508V-82.965H0Z" transform="translate(0 1080)" fill="#fff"/>
    </clipPath>
  </defs>
  <g id="Mask_Group_50" data-name="Mask Group 50" transform="translate(0 -372)" clip-path="url(#clip-path)">
    <g id="patterns-8" transform="translate(-1591.508 204.965)" opacity="0.05">
      <g id="Layer_1" data-name="Layer 1">
        <g id="Group_392" data-name="Group 392" transform="translate(235)" clip-path="url(#clip-path-2)">
          <path id="Path_757" data-name="Path 757" d="M-9.334-.1,104.032-1.3l.435,41.224L-8.9,41.124a57.073,57.073,0,0,0-10.3.934,72.1,72.1,0,0,0-61.083,71.969,72.224,72.224,0,0,0,72.9,71.38A72.224,72.224,0,0,0,64,112.506a70.872,70.872,0,0,0-7.334-30.845l43.9-.463a113.193,113.193,0,0,1,4.654,30.872A113.068,113.068,0,0,1,80.12,184.486,113.465,113.465,0,0,1-6.942,226.633a113.459,113.459,0,0,1-87.932-40.3,113.066,113.066,0,0,1-26.63-71.869A113.073,113.073,0,0,1-96.4,42.047,113.465,113.465,0,0,1-9.334-.1" transform="translate(847.936 274.336)" fill="#fff"/>
          <path id="Path_758" data-name="Path 758" d="M-2.681,0A32.566,32.566,0,0,1,30.226,32.218,32.565,32.565,0,0,1-1.994,65.125,32.565,32.565,0,0,1-34.9,32.906,32.564,32.564,0,0,1-2.681,0" transform="translate(842.695 355.662)" fill="#fff"/>
          <path id="Path_759" data-name="Path 759" d="M-19.031-15.393a113.468,113.468,0,0,1-40.3,87.933A113.081,113.081,0,0,1-131.2,99.169a113.066,113.066,0,0,1-72.414-25.108A113.466,113.466,0,0,1-245.764-13l-1.971-186.947,41.224-.435,1.972,186.946a57.149,57.149,0,0,0,.932,10.3,72.1,72.1,0,0,0,71.97,61.083,72.226,72.226,0,0,0,71.382-72.9,72.226,72.226,0,0,0-72.9-71.381A70.856,70.856,0,0,0-164-79l-.462-43.9a113.172,113.172,0,0,1,30.871-4.655,113.078,113.078,0,0,1,72.416,25.107A113.465,113.465,0,0,1-19.031-15.393" transform="translate(732.165 404.902)" fill="#fff"/>
          <path id="Path_760" data-name="Path 760" d="M-5.419-2.681A32.565,32.565,0,0,1-37.637,30.225,32.565,32.565,0,0,1-70.544-1.994,32.565,32.565,0,0,1-38.325-34.9,32.564,32.564,0,0,1-5.419-2.681" transform="translate(638.63 392.318)" fill="#fff"/>
          <path id="Path_761" data-name="Path 761" d="M-3.082-3.995l.1-.033A56.972,56.972,0,0,1,3.8-6.8a72.146,72.146,0,0,1,47.1,136.39,56.942,56.942,0,0,1-7.052,2l-.1.034a152.856,152.856,0,0,1-13.226,43.166,115.621,115.621,0,0,0,33.83-6.231A113.372,113.372,0,1,0-9.658-45.774,115.623,115.623,0,0,0-40.125-29.8,152.783,152.783,0,0,1-3.082-3.995" transform="translate(811.746 74.128)" fill="#fff"/>
          <path id="Path_762" data-name="Path 762" d="M-3.431-9.5a72.225,72.225,0,0,1,71.38-72.9,71.789,71.789,0,0,1,45.827,15.8,72.137,72.137,0,0,1,27.076,55.58,72.137,72.137,0,0,1-25.9,56.137A71.778,71.778,0,0,1,69.472,61.883,72.224,72.224,0,0,1-3.431-9.5M149.328,69.39c2.448-2.4,4.689-5,6.929-7.6,2.135-2.7,4.168-5.4,6.1-8.207.1-.1.1-.208.206-.21,1.824-2.8,3.547-5.6,5.165-8.5.1-.105.1-.209.2-.312a112.63,112.63,0,0,0,14.149-56.014,112.63,112.63,0,0,0-15.327-55.7c-.1-.1-.1-.206-.209-.307-1.679-2.868-3.46-5.634-5.344-8.4-.1,0-.1-.1-.209-.2-1.988-2.762-4.077-5.421-6.269-8.077-2.3-2.554-4.589-5.106-7.087-7.45a97.678,97.678,0,0,0-7.7-6.928,113.064,113.064,0,0,0-72.413-25.107A113.442,113.442,0,0,0-44.656-9.062,113.441,113.441,0,0,0,69.906,103.108a113.069,113.069,0,0,0,71.87-26.629,97.886,97.886,0,0,0,7.553-7.088" transform="translate(642.279 189.917)" fill="#fff"/>
          <path id="Path_763" data-name="Path 763" d="M-2.681,0A32.565,32.565,0,0,1,30.225,32.219,32.563,32.563,0,0,1-1.994,65.125,32.564,32.564,0,0,1-34.9,32.907,32.565,32.565,0,0,1-2.681,0" transform="translate(712.439 147.39)" fill="#fff"/>
          <path id="Path_764" data-name="Path 764" d="M-2.216-15.514A113.067,113.067,0,0,1-28.846-87.382,113.066,113.066,0,0,1-3.738-159.8a113.456,113.456,0,0,1,87.062-42.147,113.46,113.46,0,0,1,87.933,40.3,113.074,113.074,0,0,1,26.629,71.87,113.231,113.231,0,0,1-4,30.964l-43.9.463a70.879,70.879,0,0,0,6.683-30.993,72.225,72.225,0,0,0-72.9-71.38,72.224,72.224,0,0,0-71.38,72.9A72.1,72.1,0,0,0,74.966-17.152a57.169,57.169,0,0,0,10.315.716l113.367-1.2.435,41.225-113.367,1.2a113.463,113.463,0,0,1-87.932-40.3" transform="translate(757.761 711.63)" fill="#fff"/>
          <path id="Path_765" data-name="Path 765" d="M-2.738-5.419A32.564,32.564,0,0,0,29.481-38.325,32.565,32.565,0,0,0-3.425-70.544a32.565,32.565,0,0,0-32.22,32.907A32.566,32.566,0,0,0-2.738-5.419" transform="translate(845.909 660.4)" fill="#fff"/>
          <path id="Path_766" data-name="Path 766" d="M-15.514-16.651A113.073,113.073,0,0,1-87.384,9.979a113.187,113.187,0,0,1-30.963-4l-.463-43.9a70.866,70.866,0,0,0,30.992,6.682,72.224,72.224,0,0,0,71.381-72.9,72.225,72.225,0,0,0-72.9-71.382,72.1,72.1,0,0,0-70.666,62.588,57.269,57.269,0,0,0-.715,10.316l1.972,186.946-41.225.435-1.972-186.946a113.463,113.463,0,0,1,40.3-87.933,113.073,113.073,0,0,1,71.87-26.629,113.076,113.076,0,0,1,72.415,25.107,113.464,113.464,0,0,1,42.146,87.063,113.457,113.457,0,0,1-40.3,87.932" transform="translate(690.818 728.402)" fill="#fff"/>
          <path id="Path_767" data-name="Path 767" d="M-5.419-2.681A32.563,32.563,0,0,0-38.325-34.9a32.564,32.564,0,0,0-32.219,32.9,32.565,32.565,0,0,0,32.907,32.22A32.566,32.566,0,0,0-5.419-2.681" transform="translate(641.117 628.057)" fill="#fff"/>
          <path id="Path_768" data-name="Path 768" d="M-3.036-14.932l.1.031A57.221,57.221,0,0,0,3.9-12.267,72.224,72.224,0,0,0,94.68-58.84a72.225,72.225,0,0,0-46.574-90.78,56.732,56.732,0,0,0-7.091-1.848l-.1-.032a152.831,152.831,0,0,0-14.134-42.878,115.589,115.589,0,0,1,33.954,5.517A113.437,113.437,0,0,1,133.924-46.209,113.439,113.439,0,0,1-8.731,26.977a115.572,115.572,0,0,1-30.8-15.326A152.819,152.819,0,0,0-3.036-14.932" transform="translate(820.887 956.04)" fill="#fff"/>
          <path id="Path_769" data-name="Path 769" d="M-9.371-3.431a71.793,71.793,0,0,1,45.827,15.8A72.145,72.145,0,0,1,63.532,67.95a72.14,72.14,0,0,1-25.9,56.138A71.785,71.785,0,0,1-7.849,140.853a72.224,72.224,0,0,1-72.9-71.38A72.226,72.226,0,0,1-9.371-3.431m71.98-16.117A113.066,113.066,0,0,0-9.806-44.655,113.441,113.441,0,0,0-121.977,69.907,113.44,113.44,0,0,0-7.414,182.077a113.056,113.056,0,0,0,71.869-26.628,97.2,97.2,0,0,0,7.553-7.088c2.449-2.4,4.69-5,6.928-7.6,2.136-2.7,4.169-5.4,6.1-8.206.1-.105.1-.208.2-.209,1.826-2.8,3.548-5.6,5.167-8.507.1-.1.1-.206.2-.311a112.631,112.631,0,0,0,14.149-56.013,112.658,112.658,0,0,0-15.327-55.7c-.1-.1-.105-.2-.21-.306-1.679-2.869-3.46-5.632-5.344-8.4-.1,0-.1-.1-.21-.2C81.678.145,79.589-2.512,77.4-5.17c-2.294-2.552-4.588-5.105-7.086-7.45a98.017,98.017,0,0,0-7.7-6.928" transform="translate(726.498 764.955)" fill="#fff"/>
          <path id="Path_770" data-name="Path 770" d="M-2.738-5.419A32.563,32.563,0,0,0,29.48-38.325a32.564,32.564,0,0,0-32.9-32.219,32.565,32.565,0,0,0-32.22,32.907A32.566,32.566,0,0,0-2.738-5.419" transform="translate(720.075 871.374)" fill="#fff"/>
          <path id="Path_771" data-name="Path 771" d="M-16.75-3.354A113.071,113.071,0,0,1,9.879,68.516,113.065,113.065,0,0,1-15.229,140.93a113.459,113.459,0,0,1-87.062,42.147,113.461,113.461,0,0,1-87.932-40.3,113.07,113.07,0,0,1-26.63-71.87,113.232,113.232,0,0,1,4-30.963l43.9-.463a70.877,70.877,0,0,0-6.682,30.993,72.224,72.224,0,0,0,72.9,71.38,72.225,72.225,0,0,0,71.381-72.9A72.1,72.1,0,0,0-93.932-1.714a57.1,57.1,0,0,0-10.316-.716l-113.367,1.2-.435-41.224,113.367-1.2A113.463,113.463,0,0,1-16.75-3.354" transform="translate(1189.633 315.293)" fill="#fff"/>
          <path id="Path_772" data-name="Path 772" d="M-2.681,0A32.563,32.563,0,0,0-34.9,32.906a32.564,32.564,0,0,0,32.9,32.219,32.565,32.565,0,0,0,32.22-32.907A32.565,32.565,0,0,0-2.681,0" transform="translate(1087.937 353.076)" fill="#fff"/>
          <path id="Path_773" data-name="Path 773" d="M-3.354-8.438A113.268,113.268,0,0,1,99.48-31.065l.463,43.9A70.859,70.859,0,0,0,68.95,6.156a72.146,72.146,0,1,0,72.188,81.7,57.27,57.27,0,0,0,.715-10.316l-1.973-186.946,41.226-.435L183.078,77.1A113.372,113.372,0,1,1-3.354-8.438" transform="translate(1256.476 304.745)" fill="#fff"/>
          <path id="Path_774" data-name="Path 774" d="M0-2.738A32.564,32.564,0,0,0,32.906,29.48a32.564,32.564,0,0,0,32.219-32.9,32.565,32.565,0,0,0-32.907-32.22A32.565,32.565,0,0,0,0-2.738" transform="translate(1292.729 385.419)" fill="#fff"/>
          <path id="Path_775" data-name="Path 775" d="M-11.852-3.943l-.1-.031A57,57,0,0,0-18.79-6.608a72.224,72.224,0,0,0-90.78,46.574A72.225,72.225,0,0,0-63,130.746a56.737,56.737,0,0,0,7.091,1.848l.1.032A152.831,152.831,0,0,0-41.674,175.5a115.6,115.6,0,0,1-33.954-5.517A113.437,113.437,0,0,1-148.813,27.335,113.441,113.441,0,0,1-6.159-45.852a115.6,115.6,0,0,1,30.8,15.327A152.79,152.79,0,0,0-11.852-3.943" transform="translate(1122.429 70.892)" fill="#fff"/>
          <path id="Path_776" data-name="Path 776" d="M-9.5-15.437a71.794,71.794,0,0,1-45.828-15.8A72.144,72.144,0,0,1-82.4-86.818a72.136,72.136,0,0,1,25.9-56.138,71.785,71.785,0,0,1,45.483-16.765,72.224,72.224,0,0,1,72.9,71.38A72.226,72.226,0,0,1-9.5-15.437M-81.478.68A113.071,113.071,0,0,0-9.062,25.787,113.441,113.441,0,0,0,103.108-88.774,113.442,113.442,0,0,0-11.454-200.946a113.064,113.064,0,0,0-71.869,26.629,97.349,97.349,0,0,0-7.553,7.088c-2.448,2.4-4.689,5-6.928,7.6-2.136,2.7-4.169,5.4-6.1,8.207-.1.105-.1.208-.2.209-1.826,2.8-3.548,5.6-5.167,8.507-.1.1-.1.206-.2.311a112.648,112.648,0,0,0-14.149,56.013,112.658,112.658,0,0,0,15.327,55.7c.1.1.105.2.21.306,1.679,2.869,3.46,5.632,5.344,8.4.1,0,.1.1.21.2,1.987,2.761,4.077,5.418,6.268,8.076,2.294,2.552,4.589,5.105,7.087,7.45A97.845,97.845,0,0,0-81.478.68" transform="translate(1220.797 261.969)" fill="#fff"/>
          <path id="Path_777" data-name="Path 777" d="M-2.681,0A32.564,32.564,0,0,0-34.9,32.906a32.564,32.564,0,0,0,32.9,32.219,32.565,32.565,0,0,0,32.22-32.907A32.565,32.565,0,0,0-2.681,0" transform="translate(1213.771 142.102)" fill="#fff"/>
          <path id="Path_778" data-name="Path 778" d="M-9.533-18.867l-113.367,1.2-.435-41.224,113.367-1.2a57.078,57.078,0,0,0,10.3-.934,72.1,72.1,0,0,0,61.083-71.969,72.224,72.224,0,0,0-72.9-71.38,72.224,72.224,0,0,0-71.381,72.9,70.865,70.865,0,0,0,7.334,30.844l-43.9.463a113.194,113.194,0,0,1-4.654-30.873,113.068,113.068,0,0,1,25.108-72.414A113.469,113.469,0,0,1-11.925-245.6a113.466,113.466,0,0,1,87.933,40.3,113.065,113.065,0,0,1,26.629,71.869A113.078,113.078,0,0,1,77.53-61.014,113.465,113.465,0,0,1-9.533-18.867" transform="translate(1099.358 752.688)" fill="#fff"/>
          <path id="Path_779" data-name="Path 779" d="M-2.738-5.419A32.565,32.565,0,0,1-35.644-37.638,32.563,32.563,0,0,1-3.425-70.544,32.565,32.565,0,0,1,29.481-38.325,32.564,32.564,0,0,1-2.738-5.419" transform="translate(1091.151 657.814)" fill="#fff"/>
          <path id="Path_780" data-name="Path 780" d="M0-9.533A113.467,113.467,0,0,1,40.3-97.466a113.076,113.076,0,0,1,71.87-26.629,113.066,113.066,0,0,1,72.414,25.108,113.466,113.466,0,0,1,42.148,87.062L228.7,175.022l-41.224.435L185.508-11.49a57.143,57.143,0,0,0-.932-10.3,72.1,72.1,0,0,0-71.97-61.083,72.226,72.226,0,0,0-71.382,72.9,72.227,72.227,0,0,0,72.9,71.381,70.856,70.856,0,0,0,30.843-7.336l.463,43.9a113.17,113.17,0,0,1-30.871,4.655A113.078,113.078,0,0,1,42.146,77.53,113.465,113.465,0,0,1,0-9.533" transform="translate(1215.293 628.081)" fill="#fff"/>
          <path id="Path_781" data-name="Path 781" d="M0-2.738A32.565,32.565,0,0,1,32.219-35.644,32.564,32.564,0,0,1,65.125-3.425,32.565,32.565,0,0,1,32.906,29.481,32.564,32.564,0,0,1,0-2.738" transform="translate(1295.216 621.158)" fill="#fff"/>
          <path id="Path_782" data-name="Path 782" d="M-11.967-14.876l-.1.033a57.142,57.142,0,0,1-6.784,2.777,72.224,72.224,0,0,1-91.742-44.647,72.225,72.225,0,0,1,44.647-91.743,56.942,56.942,0,0,1,7.052-2l.1-.034a152.856,152.856,0,0,1,13.226-43.166A115.609,115.609,0,0,0-79.4-187.423,113.439,113.439,0,0,0-149.558-43.258,113.441,113.441,0,0,0-5.391,26.9,115.631,115.631,0,0,0,25.075,10.931,152.8,152.8,0,0,1-11.967-14.876" transform="translate(1131.731 952.8)" fill="#fff"/>
          <path id="Path_783" data-name="Path 783" d="M-15.437-9.371a72.225,72.225,0,0,1-71.381,72.9,71.793,71.793,0,0,1-45.827-15.8,72.14,72.14,0,0,1-27.076-55.58,72.143,72.143,0,0,1,25.9-56.137A71.78,71.78,0,0,1-88.34-80.751a72.225,72.225,0,0,1,72.9,71.38M-168.2-88.258c-2.448,2.4-4.689,5-6.929,7.6-2.134,2.7-4.167,5.4-6.1,8.207-.1.1-.1.208-.2.21-1.825,2.8-3.548,5.6-5.166,8.5-.1.105-.1.209-.2.311A112.636,112.636,0,0,0-200.944-7.413a112.64,112.64,0,0,0,15.327,55.7c.1.1.1.206.209.306,1.68,2.868,3.461,5.634,5.345,8.4.1,0,.1.1.209.2,1.988,2.762,4.076,5.421,6.268,8.077,2.3,2.554,4.589,5.106,7.087,7.45a97.665,97.665,0,0,0,7.7,6.928,113.065,113.065,0,0,0,72.414,25.107A113.44,113.44,0,0,0,25.787-9.805,113.441,113.441,0,0,0-88.774-121.976a113.06,113.06,0,0,0-71.869,26.629,97.725,97.725,0,0,0-7.553,7.088" transform="translate(1305.016 837.007)" fill="#fff"/>
          <path id="Path_784" data-name="Path 784" d="M-2.738-5.419A32.566,32.566,0,0,1-35.644-37.638,32.563,32.563,0,0,1-3.425-70.544,32.563,32.563,0,0,1,29.481-38.326,32.565,32.565,0,0,1-2.738-5.419" transform="translate(1221.407 866.087)" fill="#fff"/>
        </g>
      </g>
    </g>
  </g>
</svg>
